<svg width="46" height="14" viewBox="0 0 46 14" fill="none" xmlns="http://www.w3.org/2000/svg">
<path d="M0 11V3H3.05231C3.60553 3 4.08298 3.10807 4.48467 3.32422C4.88876 3.53776 5.20024 3.84505 5.41912 4.24609C5.638 4.64453 5.74744 5.11719 5.74744 5.66407C5.74744 6.21875 5.6356 6.69011 5.41191 7.07812C5.18821 7.46355 4.87071 7.75781 4.45941 7.96094C4.0481 8.16146 3.56104 8.26172 2.99819 8.26172H1.06795V6.73828H2.66627C2.93566 6.73828 3.16056 6.70052 3.34095 6.625C3.52375 6.54688 3.66206 6.42968 3.75586 6.27344C3.84967 6.11458 3.89657 5.91146 3.89657 5.66407C3.89657 5.41667 3.84967 5.21224 3.75586 5.05078C3.66206 4.88672 3.52375 4.76432 3.34095 4.6836C3.15815 4.60026 2.93325 4.55859 2.66627 4.55859H1.78593V11H0ZM4.15995 7.34375L6 11H4.05171L2.24774 7.34375H4.15995Z" fill="black"/>
<path d="M13 3H7V5H13V3Z" fill="#023047"/>
<path d="M13 9H7V11H13V9Z" fill="#219EBC"/>
<path d="M12 6H7V8H12V6Z" fill="#8ECAE6"/>
<path d="M17.6115 11.0002H14.7111V2.8184H17.6355C18.4585 2.8184 19.1669 2.9822 19.7608 3.30979C20.3548 3.63472 20.8115 4.10214 21.1311 4.71205C21.4534 5.32195 21.6145 6.05171 21.6145 6.90132C21.6145 7.75359 21.4534 8.48602 21.1311 9.09859C20.8115 9.71116 20.3521 10.1812 19.7528 10.5088C19.1562 10.8364 18.4425 11.0002 17.6115 11.0002ZM16.441 9.51806H17.5396C18.051 9.51806 18.4811 9.42751 18.83 9.2464C19.1816 9.06263 19.4452 8.77898 19.621 8.39546C19.7994 8.00928 19.8887 7.51123 19.8887 6.90132C19.8887 6.29674 19.7994 5.80269 19.621 5.41917C19.4452 5.03564 19.1829 4.75333 18.834 4.57222C18.4851 4.39111 18.055 4.30056 17.5436 4.30056H16.441V9.51806ZM23.8447 11.0002H21.9911L24.8155 2.8184H27.0448L29.8653 11.0002H28.0116L25.9621 4.68807H25.8982L23.8447 11.0002ZM23.7289 7.78422H28.1074V9.13454H23.7289V7.78422ZM37.6845 5.68284H35.9347C35.9027 5.45645 35.8375 5.25537 35.7389 5.07959C35.6404 4.90114 35.5139 4.74933 35.3594 4.62415C35.2049 4.49898 35.0265 4.4031 34.8241 4.33651C34.6243 4.26993 34.4073 4.23664 34.1729 4.23664C33.7494 4.23664 33.3805 4.34184 33.0663 4.55224C32.752 4.75999 32.5083 5.06361 32.3352 5.46311C32.1621 5.85995 32.0755 6.34202 32.0755 6.90931C32.0755 7.49258 32.1621 7.98264 32.3352 8.37948C32.511 8.77632 32.756 9.07595 33.0703 9.27836C33.3845 9.48078 33.7481 9.58198 34.1609 9.58198C34.3926 9.58198 34.607 9.55136 34.8041 9.4901C35.0039 9.42884 35.181 9.33962 35.3354 9.22243C35.4899 9.10258 35.6178 8.95743 35.719 8.78697C35.8228 8.61652 35.8948 8.42209 35.9347 8.2037L37.6845 8.21169C37.6392 8.58722 37.5261 8.94944 37.3449 9.29834C37.1665 9.64457 36.9255 9.95485 36.6218 10.2292C36.3209 10.5008 35.9613 10.7166 35.5432 10.8764C35.1277 11.0335 34.6576 11.1121 34.1329 11.1121C33.4032 11.1121 32.7507 10.9469 32.1754 10.6167C31.6028 10.2864 31.15 9.80837 30.8171 9.18248C30.4868 8.55659 30.3217 7.79887 30.3217 6.90931C30.3217 6.01709 30.4895 5.25803 30.8251 4.63214C31.1606 4.00626 31.6161 3.52952 32.1914 3.20192C32.7666 2.87167 33.4138 2.70654 34.1329 2.70654C34.607 2.70654 35.0465 2.77312 35.4513 2.90629C35.8588 3.03946 36.2197 3.23388 36.534 3.48957C36.8482 3.74258 37.1039 4.05287 37.301 4.42041C37.5008 4.78795 37.6286 5.20876 37.6845 5.68284ZM38.6134 4.24463V2.8184H45.333V4.24463H42.8281V11.0002H41.1183V4.24463H38.6134Z" fill="black"/>
</svg>
